<?xml version="1.0" encoding="iso-8859-1"?>
<!-- Generator: Adobe Illustrator 16.0.0, SVG Export Plug-In . SVG Version: 6.00 Build 0)  -->
<!DOCTYPE svg PUBLIC "-//W3C//DTD SVG 1.1//EN" "http://www.w3.org/Graphics/SVG/1.1/DTD/svg11.dtd">
<svg version="1.1" id="Capa_1" xmlns="http://www.w3.org/2000/svg" xmlns:xlink="http://www.w3.org/1999/xlink" x="0px" y="0px"
	 width="27.046px" height="27.045px" viewBox="0 0 27.046 27.045" style="enable-background:new 0 0 27.046 27.045;"
	 xml:space="preserve">
<g>
	<path d="M25.746,9.39C26,8.996,26.043,8.485,25.792,8.052c-2.526-4.366-7.228-7.079-12.268-7.079
		c-5.042,0-9.744,2.713-12.271,7.081C1.003,8.488,1.045,9,1.3,9.393C0.475,11.139,0,13.083,0,15.139c0,2.38,0.627,4.719,1.813,6.768
		c0.12,0.205,0.335,0.321,0.558,0.321c0.025,0,0.048-0.017,0.074-0.021c0.025,0.162,0.036,0.324,0.08,0.488
		c0.651,2.43,3.148,3.872,5.578,3.221c2.43-0.648,0.072-9.447-2.358-8.798c-1.66,0.445-2.838,1.761-3.224,3.318
		c-0.793-1.647-1.232-3.454-1.232-5.299c0-1.847,0.423-3.591,1.158-5.162C2.863,9.95,3.26,9.731,3.484,9.343
		c2.067-3.574,5.915-5.795,10.04-5.795c4.125,0,7.97,2.22,10.041,5.793c0.222,0.385,0.615,0.587,1.027,0.616
		c0.741,1.575,1.167,3.328,1.167,5.181c0,1.845-0.44,3.651-1.233,5.3c-0.385-1.559-1.563-2.874-3.226-3.319
		c-2.43-0.649-4.788,8.148-2.356,8.798c2.43,0.651,4.927-0.791,5.578-3.221c0.043-0.16,0.053-0.32,0.078-0.479
		c0.246,0.029,0.502-0.086,0.635-0.314c1.186-2.046,1.812-4.386,1.812-6.764C27.047,13.083,26.57,11.138,25.746,9.39z"/>
</g>
<g>
</g>
<g>
</g>
<g>
</g>
<g>
</g>
<g>
</g>
<g>
</g>
<g>
</g>
<g>
</g>
<g>
</g>
<g>
</g>
<g>
</g>
<g>
</g>
<g>
</g>
<g>
</g>
<g>
</g>
</svg>
